<?xml version="1.0" encoding="UTF-8" standalone="no"?>
<svg
   version="1.0"
   width="1000.000000pt"
   height="1000.000000pt"
   viewBox="0 0 1000.000000 1000.000000"
   preserveAspectRatio="xMidYMid meet"
   id="svg17"
   sodipodi:docname="R4eaXqkyv-UYeV76uW034-transformed.svg"
   inkscape:version="1.3 (0e150ed6c4, 2023-07-21)"
   xmlns:inkscape="http://www.inkscape.org/namespaces/inkscape"
   xmlns:sodipodi="http://sodipodi.sourceforge.net/DTD/sodipodi-0.dtd"
   xmlns="http://www.w3.org/2000/svg"
   xmlns:svg="http://www.w3.org/2000/svg">
  <defs
     id="defs17" />
  <sodipodi:namedview
     id="namedview17"
     pagecolor="#ffffff"
     bordercolor="#000000"
     borderopacity="0.25"
     inkscape:showpageshadow="2"
     inkscape:pageopacity="0.0"
     inkscape:pagecheckerboard="0"
     inkscape:deskcolor="#d1d1d1"
     inkscape:document-units="pt"
     inkscape:zoom="0.48075"
     inkscape:cx="665.62663"
     inkscape:cy="666.66667"
     inkscape:window-width="1600"
     inkscape:window-height="837"
     inkscape:window-x="-8"
     inkscape:window-y="-8"
     inkscape:window-maximized="1"
     inkscape:current-layer="svg17" />
  <g
     transform="translate(0.000000,1000.000000) scale(0.100000,-0.100000)"
     fill="#000000"
     stroke="none"
     id="g17"
     style="fill:#002fff;fill-opacity:0.82970297">
    <path
       d="M4772 9689 c-106 -4 -199 -10 -208 -13 -8 -3 -64 -10 -125 -16 -556 -53 -1242 -276 -1759 -573 -157 -90 -460 -294 -585 -393 -408 -324 -762 -709 -1038 -1130 -516 -786 -790 -1733 -763 -2642 16 -557 100 -1027 267 -1494 247 -690 622 -1276 1145 -1788 387 -378 747 -633 1229 -870 417 -205 815 -333 1271 -409 522 -87 1052 -87 1569 0 833 139 1632 513 2275 1065 892 765 1466 1831 1609 2984 61 488 43 984 -55 1495 -137 713 -468 1431 -926 2006 -522 656 -1188 1151 -1963 1459 -282 112 -616 206 -900 255 -167 28 -401 54 -531 60 -266 11 -324 12 -512 4z m1963 -2709 c165 -16 335 -48 420 -80 11 -4 38 -13 60 -19 198 -60 467 -207 659 -361 157 -127 331 -320 441 -490 59 -90 159 -281 182 -345 6 -16 23 -61 37 -100 104 -276 146 -625 112 -925 -17 -156 -28 -208 -71 -365 -46 -163 -131 -364 -204 -480 -191 -306 -375 -504 -642 -688 -141 -97 -349 -201 -504 -252 -168 -54 -285 -80 -463 -100 -169 -19 -266 -19 -434 0 -118 14 -182 25 -308 55 -41 9 -166 47 -195 59 -28 12 -63 26 -110 46 -174 72 -420 229 -570 362 -113 101 -167 159 -272 293 -75 96 -153 221 -214 345 -51 102 -89 191 -89 208 0 6 65 37 79 37 4 0 17 -24 30 -52 168 -396 423 -707 762 -931 98 -64 330 -187 353 -187 5 0 22 -6 39 -14 88 -40 245 -81 449 -116 68 -12 463 -16 497 -5 10 3 47 9 82 14 100 14 268 55 334 81 139 55 217 88 250 106 136 72 166 90 220 127 173 117 368 303 493 469 39 53 72 99 72 102 0 3 16 30 35 60 131 205 217 445 275 767 15 85 15 461 0 548 -69 393 -183 669 -393 946 -184 243 -426 444 -694 578 -60 31 -85 42 -168 78 -44 18 -187 62 -295 90 -231 59 -661 59 -890 0 -224 -58 -429 -140 -568 -228 -29 -18 -55 -33 -57 -33 -3 0 -38 -23 -77 -52 -228 -161 -406 -349 -555 -583 -49 -77 -163 -302 -163 -321 0 -5 -7 -19 -15 -31 -13 -19 -18 -20 -50 -9 -47 17 -50 20 -35 58 200 511 584 920 1080 1151 341 158 703 221 1075 187z m-4807 -1562 l-3 -93 -50 0 -50 0 -3 43 -3 42 -125 0 -124 0 0 -120 0 -119 138 -3 137 -3 0 -50 0 -50 -137 -3 -138 -3 0 -119 0 -120 134 0 135 0 3 43 3 42 50 0 50 0 0 -95 0 -95 -295 0 -295 0 -3 44 c-4 51 6 61 61 61 l37 0 0 294 0 295 -47 3 -48 3 -3 48 -3 47 291 0 291 0 -3 -92z m2380 -242 c1 -223 6 -334 13 -343 6 -7 21 -13 33 -13 30 0 46 -19 46 -54 0 -51 -11 -59 -72 -54 -76 6 -113 35 -133 100 -12 41 -15 109 -15 325 l0 273 -22 0 c-57 0 -68 10 -68 57 l0 44 108 -3 107 -3 3 -329z m1502 274 l0 -60 -59 0 c-44 0 -60 4 -65 16 -8 21 -8 89 1 97 3 4 33 7 65 7 l58 0 0 -60z m-422 -87 l3 -73 60 0 60 0 -3 -47 -3 -48 -57 -3 -58 -3 0 -158 c0 -158 0 -158 26 -185 17 -17 38 -26 58 -26 48 0 58 -11 54 -61 l-3 -44 -60 0 c-98 0 -160 41 -190 124 -11 32 -15 85 -15 197 l0 153 -42 3 -43 3 -3 47 -3 47 43 3 43 3 3 60 c4 87 3 86 69 83 l58 -3 3 -72z m-2145 -76 c20 -8 51 -27 68 -43 27 -25 30 -34 27 -79 l-3 -50 -50 0 c-47 0 -50 2 -53 27 -4 37 -37 58 -92 58 -61 0 -92 -22 -88 -63 3 -28 10 -36 58 -59 30 -14 81 -36 112 -48 93 -36 138 -86 138 -154 0 -49 -16 -87 -51 -118 -44 -39 -93 -53 -184 -53 -65 0 -89 5 -130 25 -64 32 -97 80 -93 135 l3 40 50 0 c49 0 49 0 58 -38 7 -30 16 -41 44 -52 49 -21 112 -19 151 5 56 35 34 95 -45 120 -74 25 -178 78 -199 103 -38 43 -50 91 -35 135 29 81 95 120 206 121 39 0 87 -5 108 -12z m607 0 c130 -47 210 -157 210 -289 0 -105 -68 -213 -165 -262 -53 -27 -70 -31 -145 -31 -73 0 -93 4 -142 28 -218 107 -225 426 -11 531 21 10 45 22 53 27 23 13 161 10 200 -4z m2518 4 c9 -5 31 -15 47 -22 46 -20 114 -89 138 -139 29 -60 31 -197 4 -251 -31 -62 -83 -115 -144 -145 -50 -25 -70 -29 -143 -29 -73 0 -93 4 -142 29 -66 32 -111 79 -142 145 -28 62 -29 188 -1 246 36 74 97 129 180 161 36 14 178 18 203 5z m816 -14 c69 -39 80 -75 86 -282 l5 -180 40 -5 40 -5 0 -45 0 -45 -100 0 -100 0 -3 204 c-2 186 -4 206 -23 232 -41 58 -144 47 -203 -23 -44 -51 -59 -113 -54 -228 l3 -85 40 -5 40 -5 0 -45 0 -45 -125 -3 c-167 -4 -172 -2 -168 51 3 41 4 42 43 47 l40 5 0 185 c0 177 -1 185 -20 188 -64 9 -65 10 -65 57 l0 45 78 0 c78 0 122 -15 122 -43 0 -7 4 -18 9 -25 6 -11 14 -8 35 11 74 68 203 89 280 44z m590 2 c64 -30 78 -49 80 -111 l1 -53 -50 0 c-47 0 -50 2 -53 27 -5 38 -37 58 -96 58 -58 0 -86 -20 -86 -60 0 -33 21 -53 80 -75 166 -62 213 -97 225 -166 22 -127 -108 -216 -280 -192 -117 17 -180 74 -173 158 l3 40 50 0 c50 0 50 0 55 -35 4 -28 12 -38 40 -52 59 -29 145 -20 172 17 4 6 8 22 8 37 0 34 -30 55 -134 94 -135 50 -188 115 -170 209 7 40 66 105 94 105 11 0 22 5 25 10 3 6 42 10 86 10 59 0 90 -5 123 -21z m-5246 -32 c3 -35 -6 -49 -152 -227 -86 -105 -156 -195 -156 -200 0 -6 42 -10 104 -10 l105 0 3 43 3 42 50 0 50 0 0 -90 0 -90 -240 0 -240 0 -3 40 c-3 39 3 48 157 235 88 107 161 197 161 200 0 3 -46 3 -102 0 l-103 -5 -5 -40 c-5 -39 -6 -40 -49 -43 -55 -4 -61 4 -61 90 0 107 -21 99 244 96 l231 -3 3 -38z m2122 -167 c6 -229 12 -254 68 -262 83 -12 140 20 182 101 17 34 20 59 20 155 l0 115 -42 3 -43 3 0 45 0 45 105 0 105 0 5 -235 5 -235 35 -5 c38 -5 48 -27 36 -76 -6 -22 -11 -24 -65 -24 -59 0 -121 15 -121 30 0 5 -5 21 -10 35 l-10 27 -21 -26 c-45 -57 -162 -89 -244 -67 -49 13 -94 57 -112 108 -8 26 -13 94 -13 206 l0 167 -38 0 c-21 0 -43 5 -50 12 -13 13 -16 70 -5 82 4 4 52 5 107 4 l101 -3 5 -205z m1160 -30 l5 -235 40 -5 40 -5 0 -45 0 -45 -145 0 -145 0 0 45 0 45 40 5 40 5 0 185 0 185 -35 5 c-48 8 -60 17 -60 45 0 54 5 56 114 53 l101 -3 5 -235z m-3002 -522 c7 -7 12 -20 12 -30 0 -10 7 -18 15 -18 8 0 15 -4 15 -8 0 -18 -26 -32 -62 -32 -34 0 -38 -3 -38 -25 0 -22 4 -25 34 -25 33 0 62 -20 49 -33 -3 -4 -24 -7 -45 -7 -38 0 -39 -1 -36 -32 3 -32 5 -33 51 -36 33 -2 47 -7 47 -17 0 -19 -34 -27 -91 -23 l-44 3 -3 118 c-2 100 0 117 13 117 8 0 15 8 15 18 0 22 19 42 40 42 9 0 21 -5 28 -12z m-789 -63 c22 -21 5 -35 -30 -25 -71 21 -78 -22 -9 -58 52 -27 60 -37 60 -74 0 -40 -45 -71 -93 -65 -42 6 -67 22 -67 44 0 11 6 14 23 9 49 -14 73 -16 86 -7 22 14 5 39 -43 61 -56 27 -76 66 -51 103 24 37 90 43 124 12z m179 2 c24 -19 12 -30 -25 -24 -67 11 -86 -29 -26 -55 75 -32 95 -89 46 -128 -43 -34 -133 -15 -133 27 0 11 6 14 23 9 49 -14 73 -16 86 -7 22 14 5 39 -43 61 -56 27 -77 67 -52 104 22 35 88 42 124 13z m279 0 c21 -16 2 -29 -34 -24 -77 13 -85 -22 -13 -58 32 -16 54 -35 60 -51 28 -72 -74 -123 -142 -72 -28 21 -8 41 27 28 63 -24 105 21 48 50 -63 32 -83 51 -83 79 0 58 87 88 137 48z m780 1 c24 -19 14 -31 -21 -25 -48 8 -69 0 -84 -31 -15 -33 -15 -64 0 -97 14 -30 44 -40 80 -26 20 7 29 7 38 -4 9 -11 5 -17 -21 -30 -102 -53 -195 83 -126 186 31 47 95 60 134 27z m566 -21 c22 -26 27 -41 27 -83 0 -46 -4 -57 -34 -88 -35 -38 -69 -46 -109 -25 -42 22 -57 51 -57 114 0 69 18 101 65 114 44 13 77 3 108 -32z m2565 20 c24 -19 12 -30 -27 -24 -24 3 -47 0 -57 -7 -15 -11 -14 -15 11 -34 15 -12 32 -22 38 -22 20 0 57 -44 57 -67 0 -31 -42 -73 -73 -73 -45 0 -87 21 -87 42 0 16 4 19 23 14 58 -17 74 -17 86 -2 17 20 8 33 -43 57 -56 26 -76 60 -55 97 22 39 89 49 127 19z m940 0 c24 -19 42 -65 42 -105 0 -81 -74 -140 -142 -113 -86 33 -84 208 3 232 28 8 79 1 97 -14z m209 0 c21 -16 2 -29 -34 -24 -77 13 -85 -22 -13 -58 32 -16 54 -35 60 -51 28 -72 -74 -123 -142 -72 -28 21 -8 41 27 28 63 -24 105 21 48 50 -63 32 -83 51 -83 79 0 58 87 88 137 48z m-5711 -85 c17 -51 34 -95 37 -99 14 -14 6 -33 -14 -33 -13 0 -25 11 -35 35 -10 25 -20 35 -37 35 -29 0 -40 -9 -54 -42 -8 -17 -20 -28 -32 -28 -17 0 -18 4 -11 28 14 47 41 126 50 147 4 11 11 28 14 38 4 12 14 17 28 15 19 -2 28 -19 54 -96z m464 -17 c0 -108 -1 -115 -20 -115 -19 0 -20 7 -20 115 0 108 1 115 20 115 19 0 20 -7 20 -115z m390 101 c0 -15 -21 -26 -51 -26 -17 0 -19 -8 -19 -95 0 -88 -1 -95 -20 -95 -19 0 -20 7 -20 95 0 87 -2 95 -19 95 -30 0 -51 11 -51 26 0 11 20 14 90 14 70 0 90 -3 90 -14z m275 -26 c14 -22 25 -43 25 -47 0 -5 11 -21 24 -38 l23 -29 -4 51 c-6 63 2 103 22 103 21 0 26 -32 23 -135 -3 -83 -5 -90 -24 -93 -21 -3 -48 32 -94 122 -15 29 -15 28 -18 -47 -3 -69 -5 -77 -22 -77 -19 0 -20 7 -20 115 0 108 1 115 20 115 12 0 29 -15 45 -40z m395 -75 c0 -108 -1 -115 -20 -115 -19 0 -20 7 -20 115 0 108 1 115 20 115 19 0 20 -7 20 -115z m182 0 c21 -60 38 -111 38 -112 0 -2 -11 -3 -24 -3 -19 0 -26 7 -31 31 -4 17 -13 33 -21 36 -27 10 -64 -7 -70 -32 -7 -29 -26 -46 -41 -37 -7 5 -2 33 17 92 46 138 48 142 72 138 18 -2 28 -22 60 -113z m425 68 c15 -27 35 -61 43 -77 15 -29 15 -28 18 47 3 69 5 77 22 77 19 0 20 -7 20 -116 0 -114 0 -115 -22 -112 -16 2 -34 23 -60 67 -20 35 -40 67 -45 72 -4 4 -8 -24 -8 -64 0 -60 -3 -72 -17 -75 -16 -3 -18 7 -18 112 0 108 1 116 19 116 12 0 30 -17 48 -47z m195 -50 l3 -98 48 -3 c74 -5 60 -42 -16 -42 -77 0 -77 0 -77 126 0 107 1 114 20 114 18 0 20 -8 22 -97z m168 -18 c0 -108 -1 -115 -20 -115 -19 0 -20 7 -20 115 0 108 1 115 20 115 19 0 20 -7 20 -115z m109 86 c12 -16 21 -32 21 -36 0 -3 11 -22 25 -42 l24 -36 3 69 c2 56 6 69 21 72 15 3 17 -7 17 -112 0 -63 -4 -117 -8 -120 -10 -6 -52 21 -52 34 0 5 -15 32 -32 61 l-33 52 -3 -71 c-3 -64 -5 -72 -22 -72 -19 0 -20 8 -20 115 0 107 1 115 19 115 11 0 29 -13 40 -29z m299 12 c-2 -14 -15 -19 -51 -21 -43 -3 -48 -5 -45 -25 2 -17 11 -23 43 -27 57 -7 55 -34 -2 -38 -40 -3 -43 -5 -43 -32 0 -31 14 -40 65 -40 37 0 56 -17 34 -31 -16 -10 -100 -12 -123 -3 -13 5 -16 25 -16 113 0 59 3 111 7 114 3 4 35 7 70 7 56 0 64 -2 61 -17z m263 -4 c17 -17 20 -29 15 -58 -7 -42 -26 -59 -78 -68 -36 -5 -38 -7 -38 -44 0 -32 -3 -39 -20 -39 -19 0 -20 7 -20 115 l0 115 60 0 c48 0 64 -4 81 -21z m137 -4 c7 -14 12 -33 12 -41 0 -8 4 -22 10 -32 11 -20 40 -108 40 -122 0 -6 -9 -10 -19 -10 -13 0 -23 11 -31 36 -11 31 -15 35 -43 32 -25 -2 -35 -10 -46 -35 -17 -39 -57 -48 -46 -10 52 173 67 207 89 207 15 0 27 -9 34 -25z m223 15 c27 -15 27 -95 0 -112 -20 -12 -20 -13 1 -50 26 -45 35 -47 44 -10 4 15 9 32 13 37 3 6 15 39 26 75 18 56 24 65 45 65 23 0 37 -30 96 -207 10 -31 -35 -22 -49 10 -14 33 -25 42 -54 42 -17 0 -27 -10 -37 -35 -14 -32 -18 -35 -58 -35 -37 0 -45 4 -56 28 -32 69 -62 78 -62 18 0 -39 -17 -61 -37 -45 -14 12 -20 209 -6 222 10 11 112 8 134 -3z m459 -10 c23 -23 25 -42 8 -69 -9 -15 -8 -22 6 -37 21 -20 15 -72 -10 -90 -19 -15 -99 -27 -124 -19 -18 6 -20 15 -20 121 l0 114 60 0 c47 0 64 -4 80 -20z m205 0 c25 -28 23 -75 -4 -99 l-22 -19 22 -36 c11 -20 24 -36 28 -36 4 0 23 46 42 103 31 90 38 102 58 102 21 0 28 -13 62 -110 21 -60 39 -111 39 -112 0 -2 -9 -3 -21 -3 -13 0 -25 11 -35 35 -12 29 -19 35 -44 35 -25 0 -32 -6 -44 -35 -14 -32 -18 -35 -58 -35 -40 1 -45 4 -70 45 -15 25 -32 45 -37 45 -5 0 -11 -19 -13 -42 -2 -35 -7 -43 -23 -43 -18 0 -20 8 -23 99 -1 55 0 106 2 113 4 9 25 13 64 13 46 0 63 -4 77 -20z m470 -95 c0 -106 -1 -110 -22 -113 -23 -3 -23 -2 -23 106 0 60 3 112 7 116 4 4 14 5 23 4 12 -3 15 -22 15 -113z m87 18 l3 -98 48 -3 c74 -5 60 -42 -16 -42 -77 0 -77 0 -77 126 0 107 1 114 20 114 18 0 20 -8 22 -97z m266 80 c-2 -14 -15 -19 -51 -21 -43 -3 -48 -5 -45 -25 2 -17 11 -23 38 -25 64 -6 63 -42 -1 -42 -36 0 -39 -2 -39 -29 0 -32 14 -41 67 -41 27 0 34 -4 31 -17 -2 -13 -15 -19 -47 -21 -91 -7 -91 -6 -91 117 0 59 3 111 7 114 3 4 35 7 70 7 56 0 64 -2 61 -17z m90 -101 c3 -113 3 -113 -20 -110 -22 3 -23 8 -26 93 -3 108 2 138 26 133 15 -3 17 -19 20 -116z m192 96 c27 -29 25 -64 -4 -93 l-24 -23 24 -42 c29 -51 29 -50 4 -50 -11 0 -31 18 -50 45 -17 25 -35 45 -40 45 -5 0 -10 -19 -12 -42 -2 -35 -7 -43 -23 -43 -18 0 -20 8 -23 99 -1 55 0 106 2 113 4 9 25 13 65 13 49 0 64 -4 81 -22z"
       id="path1"
       style="fill:#002fff;fill-opacity:0.82970297" />
    <path
       d="M3686 5184 c-47 -17 -69 -36 -97 -81 -26 -42 -28 -147 -3 -195 65 -127 251 -129 325 -2 11 18 18 52 18 92 1 94 -30 144 -114 183 -47 22 -76 23 -129 3z"
       id="path2"
       style="fill:#002fff;fill-opacity:0.82970297" />
    <path
       d="M6215 5188 c-55 -20 -87 -50 -112 -107 -39 -87 -17 -174 60 -235 35 -28 46 -31 105 -31 54 0 74 5 105 25 41 27 87 109 87 156 0 83 -61 169 -136 192 -49 14 -68 14 -109 0z"
       id="path3"
       style="fill:#002fff;fill-opacity:0.82970297" />
    <path
       d="M2762 4494 c-11 -12 -8 -14 18 -14 34 0 38 5 13 19 -13 6 -22 5 -31 -5z"
       id="path4"
       style="fill:#002fff;fill-opacity:0.82970297" />
    <path
       d="M3730 4443 c-43 -17 -55 -103 -20 -141 58 -62 127 27 88 113 -6 14 -15 25 -19 25 -4 0 -13 2 -21 4 -7 3 -20 2 -28 -1z"
       id="path5"
       style="fill:#002fff;fill-opacity:0.82970297" />
    <path
       d="M7232 4434 c-18 -12 -22 -25 -22 -69 0 -47 3 -57 25 -71 32 -21 62 -10 82 31 18 38 12 76 -17 105 -24 24 -38 25 -68 4z"
       id="path6"
       style="fill:#002fff;fill-opacity:0.82970297" />
    <path
       d="M1760 4410 c0 -8 -3 -25 -6 -37 -5 -19 -2 -23 15 -23 25 0 28 27 6 56 -11 14 -14 15 -15 4z"
       id="path7"
       style="fill:#002fff;fill-opacity:0.82970297" />
    <path
       d="M3460 4409 c0 -8 -3 -24 -6 -36 -5 -19 -2 -23 15 -23 25 0 28 25 6 54 -11 14 -15 16 -15 5z"
       id="path8"
       style="fill:#002fff;fill-opacity:0.82970297" />
    <path
       d="M4894 4436 c-3 -8 -4 -25 -2 -38 2 -19 9 -23 32 -21 25 2 46 17 46 33 0 27 -67 50 -76 26z"
       id="path9"
       style="fill:#002fff;fill-opacity:0.82970297" />
    <path
       d="M5088 4409 c-3 -13 -9 -32 -13 -41 -5 -14 -2 -18 13 -18 28 0 31 9 17 49 -11 32 -12 33 -17 10z"
       id="path10"
       style="fill:#002fff;fill-opacity:0.82970297" />
    <path
       d="M5265 4442 c-3 -3 -5 -18 -5 -34 0 -27 3 -29 33 -26 26 2 33 8 35 29 3 23 -1 27 -28 31 -16 3 -32 2 -35 0z"
       id="path11"
       style="fill:#002fff;fill-opacity:0.82970297" />
    <path
       d="M5473 4400 c-19 -29 -16 -50 7 -50 21 0 23 9 12 48 -7 22 -7 22 -19 2z"
       id="path12"
       style="fill:#002fff;fill-opacity:0.82970297" />
    <path
       d="M5716 4443 c-3 -3 -6 -17 -6 -30 0 -19 5 -23 29 -23 31 0 60 25 45 39 -13 12 -60 22 -68 14z"
       id="path13"
       style="fill:#002fff;fill-opacity:0.82970297" />
    <path
       d="M5710 4314 c0 -37 0 -37 37 -31 42 7 56 23 42 49 -7 12 -21 18 -44 18 -34 0 -35 -2 -35 -36z"
       id="path14"
       style="fill:#002fff;fill-opacity:0.82970297" />
    <path
       d="M5920 4415 c0 -32 2 -35 30 -35 23 0 31 5 36 25 8 31 8 30 -33 38 -32 6 -33 6 -33 -28z"
       id="path15"
       style="fill:#002fff;fill-opacity:0.82970297" />
    <path
       d="M6130 4410 c0 -8 -3 -25 -6 -37 -5 -19 -2 -23 15 -23 24 0 26 15 6 50 -9 15 -14 19 -15 10z"
       id="path16"
       style="fill:#002fff;fill-opacity:0.82970297" />
    <path
       d="M7020 4416 c0 -33 2 -36 29 -36 16 0 34 6 40 14 15 18 3 46 -19 46 -10 0 -25 3 -34 6 -13 5 -16 -1 -16 -30z"
       id="path17"
       style="fill:#002fff;fill-opacity:0.82970297" />
  </g>
</svg>
